<svg xmlns="http://www.w3.org/2000/svg" viewBox="0 0 86.25 86.25">
  <title>capio</title>
  <rect data-id="background" fill="#151F2A" width="86.25" height="86.25" rx="20.3" ry="20.3"/>
  <path data-id="letter-c" fill="#FFF" d="M574.9,450.35a4.5,4.5,0,0,1,0-9,4,4,0,0,1,3.92,2.68h2.08a6,6,0,0,0-6-4.67,6.49,6.49,0,0,0,0,13h0a6,6,0,0,0,6-4.84h-2.08A4,4,0,0,1,574.9,450.35Z" transform="translate(-553.12 -377.28)"/>
  <path data-id="letter-o-01" fill="#FFF" d="M617.42,439.36a6.5,6.5,0,1,0,0,13h0a6.5,6.5,0,1,0,0-13Zm0,11a4.52,4.52,0,1,1,4.51-4.51A4.41,4.41,0,0,1,617.42,450.37Z" transform="translate(-553.12 -377.28)" style="&#10;    transform: translate(-582.12px, -377.28px);&#10;"/>
  <path data-id="letter-p" fill="#FFF" d="M600,439.6h-4.63v12.52h2.06v-4.25H600a4.14,4.14,0,1,0,0-8.27Zm-.1,6.32h-2.47v-4.37h2.47a2.19,2.19,0,1,1,0,4.37Z" transform="translate(-553.12 -377.28)" style="&#10;    transform: translate(-552.32px, -377.28px);&#10;"/>
  <rect data-id="letter-i" fill="#FFF" x="53.26" y="62.32" width="2.05" height="12.52" style="&#10;    transform: translate(0.8px,0px);&#10;"/>
  <path data-id="letter-o-02" fill="#FFF" d="M617.42,439.36a6.5,6.5,0,1,0,0,13h0a6.5,6.5,0,1,0,0-13Zm0,11a4.52,4.52,0,1,1,4.51-4.51A4.41,4.41,0,0,1,617.42,450.37Z" transform="translate(-553.12 -377.28)"/>
  <path data-id="semi-circle" fill="#FFF" d="M570.39,437.11a31.55,31.55,0,1,1,51.71,0l1.63,1.14a33.54,33.54,0,1,0-55,0Z" transform="translate(-553.12 -377.28)"/>
  <path data-id="book" fill="#FFF" d="M611.3,434.32a5.06,5.06,0,0,0,5.05-5.05v-19a4.51,4.51,0,0,0-4.44-4.5v-.58a4.05,4.05,0,0,0-4.39-4v-2.6a2.69,2.69,0,0,0-4.8-1.66l-6.48,8.25-6.47-8.25a2.69,2.69,0,0,0-4.8,1.66v2.6a4.05,4.05,0,0,0-4.4,4v.58a4.51,4.51,0,0,0-4.44,4.5v19a5.06,5.06,0,0,0,5,5.05H611.3Zm-33.17-5.05v-19a2.5,2.5,0,0,1,2.44-2.5v18a3.14,3.14,0,0,0,1.94,2.91l8.76,3.67H581.18A3.06,3.06,0,0,1,578.13,429.27Zm4.44-23.5v-.58a2,2,0,0,1,.91-1.7,2,2,0,0,1,1.13-.35,1.47,1.47,0,0,1,.36,0v16.25a3.31,3.31,0,0,0,.71,2.05l7.4,9.43-9.8-4.1a1.16,1.16,0,0,1-.71-1.07v-20Zm4.39-4v-3.23a.67.67,0,0,1,.47-.65.7.7,0,0,1,.24,0,.67.67,0,0,1,.53.27l4.87,6.2,1.12,1.43.14.18.64.82.27.34v23.32l-8-10.18a1.28,1.28,0,0,1-.29-.82V401.79Zm12.46,2.55,4.87-6.2a.69.69,0,0,1,1.23.42v20.87a1.33,1.33,0,0,1-.28.82l-8,10.18V407.11l.27-.34.64-.82.15-.18Zm9.58-.85a2,2,0,0,1,.91,1.7v20.55a1.16,1.16,0,0,1-.71,1.07l-9.8,4.1,7.41-9.43a3.31,3.31,0,0,0,.71-2.05V403.18A2,2,0,0,1,609,403.49Zm5.35,25.78a3.06,3.06,0,0,1-3.05,3.05H601.21l8.76-3.67a3.14,3.14,0,0,0,1.94-2.91v-18a2.5,2.5,0,0,1,2.44,2.5Z" transform="translate(-553.12 -377.28)"/>
</svg>
